<svg id="Layer_1" data-name="Layer 1" xmlns="http://www.w3.org/2000/svg" viewBox="0 0 503.67 320.67">
    <defs>
        <style>
            .cls-1{fill:#aaaaaa;}.cls-2{fill:#fff;}
        </style>
    </defs>
    <title>rooDat_1_SVG</title>
    <rect class="cls-1" width="503.67" height="320.67"/>
    <path class="cls-2" d="M372.49,123.85l8.24,2a2.77,2.77,0,0,0-.43-1.67c-7.07-6.41-17.84-9.9-17.84-9.9l-.8,4.93s-3-6.2-4.36-7.36c-8.18-7.21-28.15-13.48-28.15-13.48-.4,20,14.28,22,14.28,22C341,121.92,341,131.94,341,131.94c-8.33-8.09-21-5.78-21-5.78-35.29-33.14-73.89-18.91-84.86-13.49-8.75,4.33-21.88,10.74-29.74,12.72-3.21.8-6.32,1.48-9.36,2a91.28,91.28,0,0,1-43.2.32c-24.34-5-38.94-18.27-46.14-26.93q-2.89-3.13-5.48-6.52c.83,8.27,9,51.2,89.53,58.34,8,.71,12.75,2.54,26.66,9.16a63.83,63.83,0,0,0,17.08,7c16.73,4.49,31.27.75,41.1,3.16a86.71,86.71,0,0,1,9.59,3,52.33,52.33,0,0,1,9.61,4.39,39.71,39.71,0,0,1,11.57,9.17,52.63,52.63,0,0,1,8.78,12.39c10.84,7.55,40.45,26.24,69.82,27.78,0,0-10.64-15.47-14.6-17-2.21-.28-4.35-.65-6.45-1.08-10.42-1.67-31-6.69-49.9-31-18.05-21.27-26.39-45.44-33.25-47.83-10.17-3.55-31.14,4.44-31.14,4.44s25.89-13.15,36.69-8c9,4.25,12.32,22.35,23.53,37.49a11.32,11.32,0,0,1,3.37-3.81c-8-17,12.56-21.57,12.56-21.57s-28,10.08,8.11,28.66h-11.7c-1.79,4.22,12.49,9,12.49,9s11.93-3.61,8.33-14.25c-.5-1.47-4-4.49-4.51-4.93,17.3,2.4,24.81-5.73,27.77-10.95-16.29-6.45-14.61-17.6-14.61-17.6s1.56,12,16.22,14L368,144c4.43-.07,6-.1,8,.29,2.29.46,5.31,4.7,7.53,5.39,8.35,2.59,14.67-10,14.67-10L389,133.36Z" transform="translate(0 0)"/>
</svg>