<svg id="Layer_1" data-name="Layer 1" xmlns="http://www.w3.org/2000/svg" viewBox="0 0 321.14 292.32">
    <defs>
        <style>
            .cls-1{fill:#29abab;}
        </style>
    </defs>
    <title>rooDat_2_SVG</title>
    <path class="cls-1" d="M649.18,344.92s-5.53-.13-10.82-.13c-3.2,0-5.64.05-7.25.15-29,1.73-44.13,19.88-44.89,20.84-12.95,23-7,89.94-6.79,92.78a1.35,1.35,0,0,0,2.13,1c34.41-24.44,50.16-57.61,56.89-71.77,6.86-14.44,11.83-40.14,12-41.23a1.35,1.35,0,0,0-1.3-1.61ZM636,386.6c-6.51,13.7-21.58,45.44-54.07,69.32-.94-12.31-4.57-68.86,6.51-88.63.15-.18,15-18,42.83-19.66,1.56-.09,4-.14,7.09-.14,3.51,0,7.13.06,9.15.1C646.3,353.48,641.75,374.47,636,386.6Z" transform="translate(-352.85 -325.18)"/><path class="cls-1" d="M669.89,328.11a2.7,2.7,0,0,0-1.64-1c-41.77-8.29-73.21,12.74-88.31,22.84-1.51,1-2.89,1.93-4.11,2.72-16.77,10.74-25.21,35.81-25.56,36.85-.44,1.3-2.08,4.6-8,12.53-4.52-6.23-11-9.84-19.29-10.77-9.29-1-15.7.45-21.91,1.88a66.06,66.06,0,0,1-13.92,2.13h-.7a26.18,26.18,0,0,1-7.34-1.09,24.66,24.66,0,0,1-2.51-4.68c-.35-1.06-8.79-26.13-25.56-36.87-1.23-.79-2.6-1.71-4.11-2.72-15.11-10.11-46.54-31.13-88.31-22.85a2.7,2.7,0,0,0-1.64,1c-.11.14-10.49,14.44,2.28,32.38,2,4.78,23.84,56.25,34.33,69.17C404.45,443.12,426.1,464,431,467.41a4.57,4.57,0,0,1,.95,1.32h0a4.66,4.66,0,0,0-4.66,4.66v9.52a7,7,0,0,0,2.53,5,3.21,3.21,0,0,1,1.25,1.74,2.14,2.14,0,0,1,.25-1c-.64,1.31-.24,14.53,6.61,25.56.2.32.44.59.64.9-.42,15.59-.48,24.38,11.44,38.62,6.94,8.3,13.14,16.52,18.6,23.77l3.44,4.55a31.07,31.07,0,0,0,2.92,11.41c7.46,15.71,20.71,24,38.32,24s30.85-8.3,38.32-24A30.88,30.88,0,0,0,554.37,583s.09-.06.12-.1c2.41-3.14,4.88-6.45,7.39-9.82,4.87-6.53,9.91-13.29,15-19.36,11.93-14.24,11.86-23,11.45-38.62.21-.31.44-.58.64-.9,6.85-11,7.26-24.25,6.62-25.56a2.08,2.08,0,0,1,.24,1,3.23,3.23,0,0,1,1.25-1.74,7,7,0,0,0,2.54-5v-9.52a4.62,4.62,0,0,0-4.44-4.65h0l-.24,0a4.64,4.64,0,0,1,.93-1.31c4.86-3.36,26.51-24.27,37.47-37.75,10.47-12.92,32.29-64.38,34.31-69.17C680.41,342.55,670,328.25,669.89,328.11ZM485.15,555.56c5.81-2.31,13-.18,16.26,3.51a69,69,0,0,1,7,10,15.64,15.64,0,0,0,3.57,4.18,72.06,72.06,0,0,0,.12,10.54c-.62,6.89-2.54,14.75-7.8,18.29C500,605,493.94,604.6,486.22,601a40.65,40.65,0,0,1-6.43-9.8C473.4,577.73,481.12,562.19,485.15,555.56Zm28.07,56.53c-8.49,0-15.68-2.11-21.55-6.25a23.72,23.72,0,0,0,5.95.9,14.36,14.36,0,0,0,8.21-2.38c4-2.72,6.34-7.41,7.66-12.43,1.32,5,3.62,9.71,7.66,12.43a14.35,14.35,0,0,0,8.21,2.38,23.13,23.13,0,0,0,5.13-.7C528.67,610.05,521.57,612.09,513.22,612.09Zm33.43-20.92a40.29,40.29,0,0,1-6.82,10.22c-7.28,3.23-13.05,3.49-17.17.72-5.26-3.54-7.18-11.4-7.81-18.29a72.15,72.15,0,0,0,.1-10.88,15.56,15.56,0,0,0,3.23-3.85,69,69,0,0,1,7-10c3.25-3.65,10.27-5.77,16-3.6C545.25,562,553.07,577.66,546.65,591.17Zm26.07-40.88c-5.16,6.2-10.25,13-15.16,19.6l-3.4,4.55c-1.31-9.44-5.7-17.69-8.45-22.09a12.28,12.28,0,0,0-6-8.31c-11.42-5.86-24.32.17-24.32.17h-4.14s-12.9-6-24.32-.17a12.16,12.16,0,0,0-5.91,7.88c-2.64,4.16-7.11,12.32-8.6,21.75-5.39-7.16-11.47-15.2-18.31-23.38-9.08-10.84-10.37-17.63-10.3-28.84,6.47,6,15.09,9.1,25.4,9.1,35.44,0,41.32-41.11,41.38-41.55s.22-1.76,2.84-1.76,2.78,1.28,2.85,1.79,5.93,41.53,41.37,41.53c10.3,0,18.92-3.12,25.39-9.09C583.09,532.66,581.8,539.45,572.71,550.29Zm20.81-66.46c-2.43,2.11-3.32,4.62-3.07,6.34,0,1.33-.41,16.29-10,26.22-5.57,5.8-13.27,8.74-22.87,8.74-30.68,0-35.81-35.33-36-36.81-.5-4-3.65-6.5-8.21-6.5s-7.71,2.49-8.21,6.48c-.2,1.5-5.33,36.83-36,36.83-9.6,0-17.29-2.94-22.87-8.74-9.53-9.91-9.94-24.84-10-26.21.25-1.72-.64-4.24-3.07-6.35a2.37,2.37,0,0,1-.66-.91v-8.82l9.06-.69a2.89,2.89,0,0,0,1.6-.68s5-4.07,20.5-4.07c10.22,0,22.65,1.72,37,5.1.6.14,1.32.4,2.15.69a26.69,26.69,0,0,0,21,0c.83-.29,1.56-.55,2.15-.69,14.31-3.39,26.74-5.1,37-5.1,15.54,0,20.45,4,20.45,4a2.72,2.72,0,0,0,1.65.72l5.75.43h0l3.26.25v8.78A2.21,2.21,0,0,1,593.52,483.83ZM663,357.58a2.66,2.66,0,0,0-.3.54c-.23.55-23.37,55.47-33.64,68.14-10.48,12.9-31.8,33.57-36.35,36.71-1.32.92-2.5,2.7-3.61,5.32l-2.81-.21c-2.18-1.5-8.69-4.83-23.3-4.83-10.64,0-23.49,1.76-38.21,5.25-.74.18-1.64.48-2.68.84a21.47,21.47,0,0,1-17.47,0c-1-.36-1.94-.66-2.68-.84-14.72-3.48-27.57-5.25-38.21-5.25-14.62,0-21.12,3.33-23.3,4.83l-2.81.22c-1.11-2.62-2.3-4.4-3.62-5.33-4.56-3.15-25.87-23.82-36.31-36.7-10.29-12.67-33.43-67.59-33.67-68.14a2.7,2.7,0,0,0-.3-.53c-9.14-12.65-4.7-22.56-3-25.41,39-7.27,67.67,11.9,83.13,22.25,1.54,1,2.95,2,4.2,2.78,11.89,7.61,20.2,24.86,23.15,33.44A43.64,43.64,0,0,1,459,378.94a2.71,2.71,0,0,0-4.88.7,41.32,41.32,0,0,0,.57,23.85,46.34,46.34,0,0,1-6.48-2.71c-1-14-3.26-27.18-7.77-35.19-.63-.77-15.78-18.92-44.76-20.65-1.62-.1-4.06-.15-7.26-.15-5.29,0-10.82.13-10.82.13a1.35,1.35,0,0,0-1.3,1.61c.21,1.09,5.19,26.79,12,41.23,6.72,14.16,22.47,47.33,56.88,71.77a1.35,1.35,0,0,0,2.13-1c.13-1.39,1.6-18.18,1.54-37.67a36.36,36.36,0,0,0,29.68,14.8c13.68,0,21.63-3.81,27.82-8.16a17.23,17.23,0,0,1-3.34,6.44,2.71,2.71,0,0,0,2.23,4.5c.63,0,15.6-1.35,24.52-14.45a2.71,2.71,0,0,0-4.48-3,28.49,28.49,0,0,1-14.68,10.76,32.91,32.91,0,0,0,2.3-10.48,2.71,2.71,0,0,0-4.39-2.19l-.27.22c-6.76,5.41-13.76,11-29.7,11-14.92,0-27.25-9.89-30-23.25v-.09a38.61,38.61,0,0,0,10.17,3,2.71,2.71,0,0,0,2.74-3.93,37.79,37.79,0,0,1-3.27-19.32c5.09,5.71,15.09,14.35,29,14a71.33,71.33,0,0,0,15-2.27c6-1.39,11.72-2.71,20.09-1.78,8,.89,13.63,4.62,17.29,11.42a2.7,2.7,0,0,0,2.16,1.41,2.67,2.67,0,0,0,2.36-1c6.48-8.36,10.15-14,11.24-17.21,2.77-8.37,11.21-26.24,23.35-34,1.25-.81,2.66-1.74,4.2-2.78,15.46-10.35,44.12-29.52,83.13-22.25C667.75,335,672.19,344.94,663,357.58ZM444.89,455.92C412.4,432,397.33,400.3,390.83,386.6c-5.76-12.12-10.31-33.12-11.52-39,2,0,5.63-.1,9.15-.1,3.14,0,5.53,0,7.09.14,27.74,1.66,42.67,19.47,42.7,19.46,4.08,7.27,6.19,19.41,7.18,32.5a2.68,2.68,0,0,0-2.8,2.77,33.16,33.16,0,0,0,3.53,13.88C446.42,433.72,445.35,450,444.89,455.92Z" transform="translate(-352.85 -325.18)"/><path class="cls-1" d="M492.72,474.69c-35.44-7.4-45.93.18-46.16.39-.62.32-6.06,3.59-6,19.35a33.36,33.36,0,0,0,3.64,14.07c3.35,6.39,10.52,14,25.63,14a28,28,0,0,0,17.88-6.06,1.35,1.35,0,0,0-1.68-2.12,25.36,25.36,0,0,1-16.2,5.47c-11,0-18.86-4.22-23.23-12.55a30.36,30.36,0,0,1-3.34-12.82c0-14.1,4.55-16.94,4.75-17.06s10.27-7.11,44.18,0c2.39.5,5.48,1.93,6.5,3.6,1.17,1.89.71,7.05.53,9.17a46.26,46.26,0,0,1-2.29,8.2,1.35,1.35,0,0,0,2.53,1,47.56,47.56,0,0,0,2.44-8.83c.35-4,.6-8.46-.9-10.91S495.75,475.33,492.72,474.69Z" transform="translate(-352.85 -325.18)"/><path class="cls-1" d="M496.47,502.84a1.35,1.35,0,0,0-1.82.58,37.07,37.07,0,0,1-4.65,7,1.35,1.35,0,0,0,2.06,1.75,39.89,39.89,0,0,0,5-7.53A1.35,1.35,0,0,0,496.47,502.84Z" transform="translate(-352.85 -325.18)"/><path class="cls-1" d="M580.46,475.2c-.26-.2-6.74-4.92-26.39-3.46a1.35,1.35,0,0,0-1.25,1.45,1.37,1.37,0,0,0,1.45,1.25c18.42-1.38,24.5,2.88,24.72,3,0,0,4.62,2.87,4.59,17a30.35,30.35,0,0,1-3.33,12.82c-4.37,8.33-12.19,12.55-23.23,12.55-24.54,0-29.2-28.47-29.38-29.6-.21-2.4-.64-7.38.52-9.26.85-1.38,3.41-2.85,6.1-3.5a1.35,1.35,0,0,0-.64-2.63c-2.64.64-6.26,2.26-7.77,4.72s-1.25,6.91-.9,11c0,.32,5.19,32,32.06,32,15.11,0,22.28-7.61,25.63-14a33.37,33.37,0,0,0,3.65-14.07C586.32,478.66,580.88,475.4,580.46,475.2Z" transform="translate(-352.85 -325.18)"/><path class="cls-1" d="M539.5,476.37l.24,0c3.13-.56,6.14-1,9-1.36a1.35,1.35,0,1,0-.32-2.68c-2.88.35-5.95.81-9.13,1.38a1.35,1.35,0,0,0,.24,2.68Z" transform="translate(-352.85 -325.18)"/><path class="cls-1" d="M435.49,477.15a2.61,2.61,0,0,0-.78,1.89,2.72,2.72,0,0,0,4.63,1.92,2.85,2.85,0,0,0,.78-1.92,2.73,2.73,0,0,0-.78-1.89A2.78,2.78,0,0,0,435.49,477.15Z" transform="translate(-352.85 -325.18)"/><path class="cls-1" d="M587.48,477.15a2.68,2.68,0,0,0,0,3.81,2.61,2.61,0,0,0,1.89.78,2.68,2.68,0,0,0,2.71-2.71,2.62,2.62,0,0,0-.78-1.89A2.78,2.78,0,0,0,587.48,477.15Z" transform="translate(-352.85 -325.18)"/>
</svg>